<svg xmlns="http://www.w3.org/2000/svg" viewBox="0 0 500 500"><g id="freepik--background-simple--inject-118"><path d="M58.15,205.74C36.48,126.24,185.22,89.66,264.22,101.68,364.16,116.87,419.79,171.61,417,255.43c-2.79,83.06-97.49,130.1-167.76,94.67C214.58,332.63,189.5,301.19,155,283,114,261.44,71.69,255.43,58.15,205.74Z" style="fill:#3663D9"></path><path d="M58.15,205.74C36.48,126.24,185.22,89.66,264.22,101.68,364.16,116.87,419.79,171.61,417,255.43c-2.79,83.06-97.49,130.1-167.76,94.67C214.58,332.63,189.5,301.19,155,283,114,261.44,71.69,255.43,58.15,205.74Z" style="fill:#fff;opacity:0.9"></path></g><g id="freepik--Shadow--inject-118"><ellipse id="freepik--path--inject-118" cx="250" cy="416.24" rx="193.89" ry="11.32" style="fill:#f5f5f5"></ellipse></g><g id="freepik--cash-register--inject-118"><path d="M292,285.69h82.79a6.37,6.37,0,0,1,6.37,6.37h0a6.37,6.37,0,0,1-6.37,6.37H292Z" style="fill:#3663D9"></path><path d="M292,285.69h82.79a6.37,6.37,0,0,1,6.37,6.37h0a6.37,6.37,0,0,1-6.37,6.37H292Z" style="fill:#fff;opacity:0.6000000000000001"></path><circle cx="366.68" cy="245.97" r="9.57" transform="translate(43.05 546.33) rotate(-76.72)" style="fill:#3663D9"></circle><circle cx="366.68" cy="245.97" r="9.57" transform="translate(43.05 546.33) rotate(-76.72)" style="fill:#fff;opacity:0.8"></circle><polygon points="300.81 247.25 379.92 247.25 372.34 285.69 308.38 285.69 300.81 247.25" style="fill:#263238"></polygon><path d="M298.6,243.56h83.52a1.18,1.18,0,0,1,1.14,1.51l-1,3.41a1.19,1.19,0,0,1-1.14.85H299.59a1.19,1.19,0,0,1-1.14-.85l-1-3.41A1.18,1.18,0,0,1,298.6,243.56Z" style="fill:#3663D9"></path><path d="M298.6,243.56h83.52a1.18,1.18,0,0,1,1.14,1.51l-1,3.41a1.19,1.19,0,0,1-1.14.85H299.59a1.19,1.19,0,0,1-1.14-.85l-1-3.41A1.18,1.18,0,0,1,298.6,243.56Z" style="fill:#fff;opacity:0.6000000000000001"></path><rect x="308.53" y="239" width="38" height="4.56" style="fill:#3663D9"></rect><rect x="308.53" y="239" width="38" height="4.56" style="opacity:0.2"></rect><path d="M330.36,251.88a1.23,1.23,0,0,1-1.33.84c-3-.51-4.48-3.24-3.39-6.53l7.65-23.09c1.21-3.65,5.16-6.61,8.8-6.61h13.55c3.64,0,5.62,3,4.42,6.61l-6.79,20.46H351l6.78-20.46c.8-2.39-.5-4.34-2.89-4.34H341.34a6.61,6.61,0,0,0-5.78,4.34l-7.65,23.09c-.65,1.95.1,3.61,1.69,4.15a1.21,1.21,0,0,1,.76,1.54Z" style="fill:#3663D9"></path><rect x="171.34" y="240.62" width="146.1" height="175.62" rx="8.65" style="fill:#3663D9"></rect><path d="M206.9,306.22H86.9a6.38,6.38,0,0,0-6.37,6.38h0A6.37,6.37,0,0,0,86.9,319h120Z" style="fill:#3663D9"></path><polygon points="206.9 322.5 171.49 338.53 171.49 318.96 206.9 318.96 206.9 322.5" style="fill:#263238;opacity:0.30000000000000004"></polygon><path d="M206.9,306.22H130.47a6.38,6.38,0,0,0-6.37,6.38h0a6.38,6.38,0,0,0,6.37,6.37H206.9Z" style="fill:#fff;opacity:0.7000000000000001"></path><rect x="211.24" y="240.62" width="106.2" height="175.62" rx="8.65" style="fill:#fff;opacity:0.7000000000000001"></rect><rect x="127.94" y="318.97" width="10.85" height="97.27" style="fill:#3663D9"></rect><rect x="127.94" y="318.97" width="10.85" height="97.27" style="fill:#fff;opacity:0.7000000000000001"></rect><polygon points="138.79 323.19 127.94 325.54 127.94 318.96 138.79 318.96 138.79 323.19" style="fill:#3663D9;opacity:0.30000000000000004"></polygon><rect x="221.18" y="261.38" width="86.31" height="32.73" rx="2.47" style="fill:#3663D9;opacity:0.30000000000000004"></rect><polygon points="159.49 223.41 100.19 223.41 94.18 306.23 165.5 306.23 159.49 223.41" style="fill:#3663D9"></polygon><polygon points="108.06 223.41 100.19 223.41 94.18 306.23 110.14 306.23 108.06 223.41" style="fill:#263238;opacity:0.30000000000000004"></polygon><path d="M133.45,233.51c-5.54,0-10.5-3.89-11.33-9.07a9.19,9.19,0,0,1,1.84-7.15,10.64,10.64,0,0,1,7.47-3.93c5.95-.54,11.51,3.51,12.39,9a9.21,9.21,0,0,1-1.85,7.16,10.6,10.6,0,0,1-7.46,3.93C134.15,233.49,133.8,233.51,133.45,233.51Zm-.95-18.44c-.3,0-.61,0-.91,0a8.91,8.91,0,0,0-6.24,3.26,7.46,7.46,0,0,0-1.49,5.8c.73,4.61,5.44,8,10.49,7.54a8.91,8.91,0,0,0,6.24-3.26,7.46,7.46,0,0,0,1.49-5.8C141.39,218.32,137.19,215.07,132.5,215.07Z" style="fill:#3663D9"></path><path d="M129,233.51c-.35,0-.7,0-1.06,0a10.6,10.6,0,0,1-7.46-3.93,9.16,9.16,0,0,1-1.84-7.16c.87-5.5,6.43-9.55,12.38-9a10.62,10.62,0,0,1,7.47,3.93,9.15,9.15,0,0,1,1.84,7.15C139.47,229.62,134.5,233.51,129,233.51Zm1-18.44c-4.7,0-8.9,3.25-9.59,7.58a7.46,7.46,0,0,0,1.49,5.8,8.91,8.91,0,0,0,6.24,3.26c5.05.45,9.76-2.93,10.5-7.54a7.42,7.42,0,0,0-1.5-5.8,8.89,8.89,0,0,0-6.23-3.26C130.52,215.08,130.22,215.07,129.92,215.07Z" style="fill:#3663D9"></path><rect x="218.41" y="110.56" width="17.6" height="130.07" style="fill:#3663D9"></rect><polygon points="236.01 180.2 218.41 180.2 218.41 214.19 236.01 212.02 236.01 180.2" style="fill:#263238;opacity:0.30000000000000004"></polygon><polygon points="236.01 111.45 218.41 111.45 218.41 121.34 236.01 119.17 236.01 111.45" style="fill:#263238;opacity:0.30000000000000004"></polygon><path d="M181.25,204.39l-4.91-71.25a4.39,4.39,0,0,1,4.38-4.69H290.13a4.38,4.38,0,0,1,4.38,4.08l4.9,71.25a4.38,4.38,0,0,1-4.38,4.69H185.62A4.37,4.37,0,0,1,181.25,204.39Z" style="fill:#263238"></path><path d="M288.87,131.7H182.16a2.48,2.48,0,0,0-2.47,2.65l4.72,68.56a2.48,2.48,0,0,0,2.47,2.31H293.59a2.48,2.48,0,0,0,2.48-2.65L291.35,134A2.48,2.48,0,0,0,288.87,131.7Z" style="fill:#3663D9"></path><path d="M288.87,131.7H182.16a2.48,2.48,0,0,0-2.47,2.65l4.72,68.56a2.48,2.48,0,0,0,2.47,2.31H293.59a2.48,2.48,0,0,0,2.48-2.65L291.35,134A2.48,2.48,0,0,0,288.87,131.7Z" style="fill:#fff;opacity:0.8"></path><rect x="196.29" y="238.24" width="93.66" height="2.38" style="fill:#263238"></rect><polygon points="263.88 197.19 193.4 197.19 189.49 140.43 259.97 140.43 263.88 197.19" style="fill:#3663D9;opacity:0.30000000000000004"></polygon><polygon points="284.03 145.51 265.04 145.51 264.69 140.43 283.68 140.43 284.03 145.51" style="fill:#3663D9;opacity:0.30000000000000004"></polygon><polygon points="285.43 165.98 266.44 165.98 265.45 151.5 284.44 151.5 285.43 165.98" style="fill:#3663D9;opacity:0.30000000000000004"></polygon><rect x="208.98" y="90.11" width="35.41" height="26.43" style="fill:#3663D9"></rect><rect x="208.98" y="90.11" width="14.73" height="26.43" style="fill:#263238;opacity:0.30000000000000004"></rect></g></svg>